<svg xmlns="http://www.w3.org/2000/svg" xmlns:svg="http://www.w3.org/2000/svg" id="svg2623" width="300" height="250" version="0.0" viewBox="0 0 289.333 253" xml:space="preserve"><g id="g2987" transform="matrix(1.012,0,0,1.012,180.087,42.504)" style="overflow:visible"><path id="path2981" d="m -85.000008,-2 a 20,20 0 1 1 -40.000002,0 20,20 0 1 1 40.000002,0 z" transform="translate(70,-15)" style="fill:none;stroke:#000;stroke-width:2;stroke-linecap:butt;stroke-linejoin:miter;stroke-miterlimit:4;stroke-opacity:1;stroke-dasharray:none;stroke-dashoffset:0;marker:none;visibility:visible;display:inline;overflow:visible;enable-background:accumulate"/><text id="text2983" x="-42.313" y="-8.094" xml:space="preserve" style="font-size:24px;font-style:normal;font-variant:normal;font-weight:400;font-stretch:normal;text-align:start;line-height:125%;writing-mode:lr-tb;text-anchor:start;fill:#000;fill-opacity:1;stroke:none;stroke-width:2;marker:none;visibility:visible;display:inline;overflow:visible;enable-background:accumulate;font-family:DejaVu Sans;-inkscape-font-specification:DejaVu Sans"><tspan id="tspan2985" x="-42.313" y="-8.094">2</tspan></text></g><g id="g2992" transform="matrix(1.012,0,0,1.012,104.187,98.164)" style="overflow:visible"><path id="path2994" d="m -85.000008,-2 a 20,20 0 1 1 -40.000002,0 20,20 0 1 1 40.000002,0 z" transform="translate(70,-15)" style="fill:none;stroke:#000;stroke-width:2;stroke-linecap:butt;stroke-linejoin:miter;stroke-miterlimit:4;stroke-opacity:1;stroke-dasharray:none;stroke-dashoffset:0;marker:none;visibility:visible;display:inline;overflow:visible;enable-background:accumulate"/><text id="text2996" x="-42.313" y="-8.094" xml:space="preserve" style="font-size:24px;font-style:normal;font-variant:normal;font-weight:400;font-stretch:normal;text-align:start;line-height:125%;writing-mode:lr-tb;text-anchor:start;fill:#000;fill-opacity:1;stroke:none;stroke-width:2;marker:none;visibility:visible;display:inline;overflow:visible;enable-background:accumulate;font-family:DejaVu Sans;-inkscape-font-specification:DejaVu Sans"><tspan id="tspan2998" x="-42.313" y="-8.094">7</tspan></text></g><g id="g3000" transform="matrix(1.012,0,0,1.012,255.986,98.164)" style="overflow:visible"><path id="path3002" d="m -85.000008,-2 a 20,20 0 1 1 -40.000002,0 20,20 0 1 1 40.000002,0 z" transform="translate(70,-15)" style="fill:none;stroke:#000;stroke-width:2;stroke-linecap:butt;stroke-linejoin:miter;stroke-miterlimit:4;stroke-opacity:1;stroke-dasharray:none;stroke-dashoffset:0;marker:none;visibility:visible;display:inline;overflow:visible;enable-background:accumulate"/><text id="text3004" x="-42.313" y="-8.094" xml:space="preserve" style="font-size:24px;font-style:normal;font-variant:normal;font-weight:400;font-stretch:normal;text-align:start;line-height:125%;writing-mode:lr-tb;text-anchor:start;fill:#000;fill-opacity:1;stroke:none;stroke-width:2;marker:none;visibility:visible;display:inline;overflow:visible;enable-background:accumulate;font-family:DejaVu Sans;-inkscape-font-specification:DejaVu Sans"><tspan id="tspan3006" x="-42.313" y="-8.094">5</tspan></text></g><g id="g3008" transform="matrix(1.012,0,0,1.012,53.5865,174.064)" style="overflow:visible"><path id="path3010" d="m -85.000008,-2 a 20,20 0 1 1 -40.000002,0 20,20 0 1 1 40.000002,0 z" transform="translate(70,-15)" style="fill:none;stroke:#000;stroke-width:2;stroke-linecap:butt;stroke-linejoin:miter;stroke-miterlimit:4;stroke-opacity:1;stroke-dasharray:none;stroke-dashoffset:0;marker:none;visibility:visible;display:inline;overflow:visible;enable-background:accumulate"/><text id="text3012" x="-42.313" y="-8.094" xml:space="preserve" style="font-size:24px;font-style:normal;font-variant:normal;font-weight:400;font-stretch:normal;text-align:start;line-height:125%;writing-mode:lr-tb;text-anchor:start;fill:#000;fill-opacity:1;stroke:none;stroke-width:2;marker:none;visibility:visible;display:inline;overflow:visible;enable-background:accumulate;font-family:DejaVu Sans;-inkscape-font-specification:DejaVu Sans"><tspan id="tspan3014" x="-42.313" y="-8.094">2</tspan></text></g><g id="g3016" transform="matrix(1.012,0,0,1.012,154.786,174.064)" style="overflow:visible"><path id="path3018" d="m -85.000008,-2 a 20,20 0 1 1 -40.000002,0 20,20 0 1 1 40.000002,0 z" transform="translate(70,-15)" style="fill:none;stroke:#000;stroke-width:2;stroke-linecap:butt;stroke-linejoin:miter;stroke-miterlimit:4;stroke-opacity:1;stroke-dasharray:none;stroke-dashoffset:0;marker:none;visibility:visible;display:inline;overflow:visible;enable-background:accumulate"/><text id="text3020" x="-42.313" y="-8.094" xml:space="preserve" style="font-size:24px;font-style:normal;font-variant:normal;font-weight:400;font-stretch:normal;text-align:start;line-height:125%;writing-mode:lr-tb;text-anchor:start;fill:#000;fill-opacity:1;stroke:none;stroke-width:2;marker:none;visibility:visible;display:inline;overflow:visible;enable-background:accumulate;font-family:DejaVu Sans;-inkscape-font-specification:DejaVu Sans"><tspan id="tspan3022" x="-42.313" y="-8.094">6</tspan></text></g><g id="g3024" transform="matrix(1.012,0,0,1.012,306.586,174.064)" style="overflow:visible"><path id="path3026" d="m -85.000008,-2 a 20,20 0 1 1 -40.000002,0 20,20 0 1 1 40.000002,0 z" transform="translate(70,-15)" style="fill:none;stroke:#000;stroke-width:2;stroke-linecap:butt;stroke-linejoin:miter;stroke-miterlimit:4;stroke-opacity:1;stroke-dasharray:none;stroke-dashoffset:0;marker:none;visibility:visible;display:inline;overflow:visible;enable-background:accumulate"/><text id="text3028" x="-42.313" y="-8.094" xml:space="preserve" style="font-size:24px;font-style:normal;font-variant:normal;font-weight:400;font-stretch:normal;text-align:start;line-height:125%;writing-mode:lr-tb;text-anchor:start;fill:#000;fill-opacity:1;stroke:none;stroke-width:2;marker:none;visibility:visible;display:inline;overflow:visible;enable-background:accumulate;font-family:DejaVu Sans;-inkscape-font-specification:DejaVu Sans"><tspan id="tspan3030" x="-42.313" y="-8.094">9</tspan></text></g><g id="g3032" transform="matrix(1.012,0,0,1.012,114.307,244.904)" style="overflow:visible"><path id="path3034" d="m -85.000008,-2 a 20,20 0 1 1 -40.000002,0 20,20 0 1 1 40.000002,0 z" transform="translate(70,-15)" style="fill:none;stroke:#000;stroke-width:2;stroke-linecap:butt;stroke-linejoin:miter;stroke-miterlimit:4;stroke-opacity:1;stroke-dasharray:none;stroke-dashoffset:0;marker:none;visibility:visible;display:inline;overflow:visible;enable-background:accumulate"/><text id="text3036" x="-42.313" y="-8.094" xml:space="preserve" style="font-size:24px;font-style:normal;font-variant:normal;font-weight:400;font-stretch:normal;text-align:start;line-height:125%;writing-mode:lr-tb;text-anchor:start;fill:#000;fill-opacity:1;stroke:none;stroke-width:2;marker:none;visibility:visible;display:inline;overflow:visible;enable-background:accumulate;font-family:DejaVu Sans;-inkscape-font-specification:DejaVu Sans"><tspan id="tspan3038" x="-42.313" y="-8.094">5</tspan></text></g><g id="g3040" transform="matrix(1.012,0,0,1.012,186.995,244.744)" style="overflow:visible"><path id="path3042" d="m -85.000008,-2 a 20,20 0 1 1 -40.000002,0 20,20 0 1 1 40.000002,0 z" transform="translate(78.1738,-14.8418)" style="fill:none;stroke:#000;stroke-width:2;stroke-linecap:butt;stroke-linejoin:miter;stroke-miterlimit:4;stroke-opacity:1;stroke-dasharray:none;stroke-dashoffset:0;marker:none;visibility:visible;display:inline;overflow:visible;enable-background:accumulate"/><text id="text3044" x="-42.313" y="-8.094" xml:space="preserve" style="font-size:24px;font-style:normal;font-variant:normal;font-weight:400;font-stretch:normal;text-align:start;line-height:125%;writing-mode:lr-tb;text-anchor:start;fill:#000;fill-opacity:1;stroke:none;stroke-width:2;marker:none;visibility:visible;display:inline;overflow:visible;enable-background:accumulate;font-family:DejaVu Sans;-inkscape-font-specification:DejaVu Sans"><tspan id="tspan3046" x="-42.313" y="-8.094">11</tspan></text></g><g id="g3048" transform="matrix(1.012,0,0,1.012,255.986,244.904)" style="overflow:visible"><path id="path3050" d="m -85.000008,-2 a 20,20 0 1 1 -40.000002,0 20,20 0 1 1 40.000002,0 z" transform="translate(70,-15)" style="fill:none;stroke:#000;stroke-width:2;stroke-linecap:butt;stroke-linejoin:miter;stroke-miterlimit:4;stroke-opacity:1;stroke-dasharray:none;stroke-dashoffset:0;marker:none;visibility:visible;display:inline;overflow:visible;enable-background:accumulate"/><text id="text3052" x="-42.313" y="-8.094" xml:space="preserve" style="font-size:24px;font-style:normal;font-variant:normal;font-weight:400;font-stretch:normal;text-align:start;line-height:125%;writing-mode:lr-tb;text-anchor:start;fill:#000;fill-opacity:1;stroke:none;stroke-width:2;marker:none;visibility:visible;display:inline;overflow:visible;enable-background:accumulate;font-family:DejaVu Sans;-inkscape-font-specification:DejaVu Sans"><tspan id="tspan3054" x="-42.313" y="-8.094">4</tspan></text></g><g id="g3096" transform="matrix(-0.597738,-0.801692,0.801692,-0.597738,131.928,233.807)"><path id="path3092" d="m 159.85851,60.695994 -3.04799,14.192 6.096,0 -3.04801,-14.192 z" style="fill:#000;fill-opacity:1;stroke:#000;stroke-width:1.99999988;stroke-linecap:butt;stroke-linejoin:miter;stroke-miterlimit:4;stroke-opacity:1;stroke-dasharray:none;stroke-dashoffset:0;marker:none;visibility:visible;display:inline;overflow:visible;enable-background:accumulate"/><path id="path3094" d="m 159.8465,70.84 0,43.93551" style="fill:#000;fill-opacity:1;stroke:#000;stroke-width:2;stroke-linecap:butt;stroke-linejoin:miter;stroke-miterlimit:4;stroke-opacity:1;stroke-dasharray:none;stroke-dashoffset:0;marker:none;visibility:visible;display:inline;overflow:visible;enable-background:accumulate"/></g><g id="g3106" transform="matrix(0.597738,-0.801692,-0.801692,-0.597738,156.41,233.807)" style="overflow:visible"><path id="path3108" d="m 159.85851,60.695994 -3.04799,14.192 6.096,0 -3.04801,-14.192 z" style="fill:#000;fill-opacity:1;stroke:#000;stroke-width:1.99999988;stroke-linecap:butt;stroke-linejoin:miter;stroke-miterlimit:4;stroke-opacity:1;stroke-dasharray:none;stroke-dashoffset:0;marker:none;visibility:visible;display:inline;overflow:visible;enable-background:accumulate"/><path id="path3110" d="m 159.8465,70.84 0,43.93551" style="fill:#000;fill-opacity:1;stroke:#000;stroke-width:2;stroke-linecap:butt;stroke-linejoin:miter;stroke-miterlimit:4;stroke-opacity:1;stroke-dasharray:none;stroke-dashoffset:0;marker:none;visibility:visible;display:inline;overflow:visible;enable-background:accumulate"/></g><g id="g3112" transform="matrix(-0.836546,-0.547897,0.547897,-0.836546,130.664,278.069)" style="overflow:visible"><path id="path3114" d="m 159.85851,60.695994 -3.04799,14.192 6.096,0 -3.04801,-14.192 z" style="fill:#000;fill-opacity:1;stroke:#000;stroke-width:1.99999988;stroke-linecap:butt;stroke-linejoin:miter;stroke-miterlimit:4;stroke-opacity:1;stroke-dasharray:none;stroke-dashoffset:0;marker:none;visibility:visible;display:inline;overflow:visible;enable-background:accumulate"/><path id="path3116" d="m 159.8465,70.84 0,39.91866" style="fill:#000;fill-opacity:1;stroke:#000;stroke-width:2;stroke-linecap:butt;stroke-linejoin:miter;stroke-miterlimit:4;stroke-opacity:1;stroke-dasharray:none;stroke-dashoffset:0;marker:none;visibility:visible;display:inline;overflow:visible;enable-background:accumulate"/></g><g id="g3118" transform="matrix(0.836546,-0.547897,-0.547897,-0.836546,7.25664,278.147)" style="overflow:visible"><path id="path3120" d="m 159.85851,60.695994 -3.04799,14.192 6.096,0 -3.04801,-14.192 z" style="fill:#000;fill-opacity:1;stroke:#000;stroke-width:1.99999988;stroke-linecap:butt;stroke-linejoin:miter;stroke-miterlimit:4;stroke-opacity:1;stroke-dasharray:none;stroke-dashoffset:0;marker:none;visibility:visible;display:inline;overflow:visible;enable-background:accumulate"/><path id="path3122" d="m 159.8465,70.84 0,39.91866" style="fill:#000;fill-opacity:1;stroke:#000;stroke-width:2;stroke-linecap:butt;stroke-linejoin:miter;stroke-miterlimit:4;stroke-opacity:1;stroke-dasharray:none;stroke-dashoffset:0;marker:none;visibility:visible;display:inline;overflow:visible;enable-background:accumulate"/></g><g id="g3124" transform="matrix(0.836546,-0.547897,-0.547897,-0.836546,159.563,277.894)" style="overflow:visible"><path id="path3126" d="m 159.85851,60.695994 -3.04799,14.192 6.096,0 -3.04801,-14.192 z" style="fill:#000;fill-opacity:1;stroke:#000;stroke-width:1.99999988;stroke-linecap:butt;stroke-linejoin:miter;stroke-miterlimit:4;stroke-opacity:1;stroke-dasharray:none;stroke-dashoffset:0;marker:none;visibility:visible;display:inline;overflow:visible;enable-background:accumulate"/><path id="path3128" d="m 159.8465,70.84 0,39.91866" style="fill:#000;fill-opacity:1;stroke:#000;stroke-width:2;stroke-linecap:butt;stroke-linejoin:miter;stroke-miterlimit:4;stroke-opacity:1;stroke-dasharray:none;stroke-dashoffset:0;marker:none;visibility:visible;display:inline;overflow:visible;enable-background:accumulate"/></g><g id="g3130" transform="matrix(-0.836546,-0.547897,0.547897,-0.836546,333.182,349.493)" style="overflow:visible"><path id="path3132" d="m 159.85851,60.695994 -3.04799,14.192 6.096,0 -3.04801,-14.192 z" style="fill:#000;fill-opacity:1;stroke:#000;stroke-width:1.99999988;stroke-linecap:butt;stroke-linejoin:miter;stroke-miterlimit:4;stroke-opacity:1;stroke-dasharray:none;stroke-dashoffset:0;marker:none;visibility:visible;display:inline;overflow:visible;enable-background:accumulate"/><path id="path3134" d="m 159.8465,70.84 0,36.27828" style="fill:#000;fill-opacity:1;stroke:#000;stroke-width:2;stroke-linecap:butt;stroke-linejoin:miter;stroke-miterlimit:4;stroke-opacity:1;stroke-dasharray:none;stroke-dashoffset:0;marker:none;visibility:visible;display:inline;overflow:visible;enable-background:accumulate"/></g><g id="g3142" transform="matrix(0.875939,-0.482422,-0.482422,-0.875939,39.6299,340.2)" style="overflow:visible"><path id="path3144" d="m 159.85851,60.695994 -3.04799,14.192 6.096,0 -3.04801,-14.192 z" style="fill:#000;fill-opacity:1;stroke:#000;stroke-width:1.99999988;stroke-linecap:butt;stroke-linejoin:miter;stroke-miterlimit:4;stroke-opacity:1;stroke-dasharray:none;stroke-dashoffset:0;marker:none;visibility:visible;display:inline;overflow:visible;enable-background:accumulate"/><path id="path3146" d="m 159.8465,70.84 0,31.1306" style="fill:#000;fill-opacity:1;stroke:#000;stroke-width:2;stroke-linecap:butt;stroke-linejoin:miter;stroke-miterlimit:4;stroke-opacity:1;stroke-dasharray:none;stroke-dashoffset:0;marker:none;visibility:visible;display:inline;overflow:visible;enable-background:accumulate"/></g><g id="g3148" transform="matrix(-0.875939,-0.482422,0.482422,-0.875939,199.907,341.565)" style="overflow:visible"><path id="path3150" d="m 159.85851,60.695994 -3.04799,14.192 6.096,0 -3.04801,-14.192 z" style="fill:#000;fill-opacity:1;stroke:#000;stroke-width:1.99999988;stroke-linecap:butt;stroke-linejoin:miter;stroke-miterlimit:4;stroke-opacity:1;stroke-dasharray:none;stroke-dashoffset:0;marker:none;visibility:visible;display:inline;overflow:visible;enable-background:accumulate"/><path id="path3152" d="m 159.8465,70.84 0,31.1306" style="fill:#000;fill-opacity:1;stroke:#000;stroke-width:2;stroke-linecap:butt;stroke-linejoin:miter;stroke-miterlimit:4;stroke-opacity:1;stroke-dasharray:none;stroke-dashoffset:0;marker:none;visibility:visible;display:inline;overflow:visible;enable-background:accumulate"/></g><metadata id="metadata3117"/></svg>