<svg xmlns="http://www.w3.org/2000/svg" xmlns:svg="http://www.w3.org/2000/svg" xmlns:xlink="http://www.w3.org/1999/xlink" id="svg1430" width="405" height="265" x="0" y="0" enable-background="new -30.228 18 405 265" version="1.1" viewBox="-30.228 18 405 265" xml:space="preserve"><rect id="node0" width="87" height="27" x="59" y="140.791" fill="#00F" fill-opacity=".75" stroke="#000" transform="matrix(0.0043 1 -1 0.0043 256.347 51.1258)"/><path id="path1446" stroke="#000" d="M337.901,168.491l1.166,17.183l-10.081-13.992L337.901,168.491z"/><text font-family="'LucidaSans'" font-size="24" transform="matrix(1 0 0 1 265.8555 145.0156)">Dequeue</text><text font-family="'LucidaSans'" font-size="24" transform="matrix(1 0 0 1 -24.2949 177.082)">Enqueue</text><path id="path2432" fill="none" stroke="#000" stroke-width=".736" d="M71.158,152.233L71.158,152.233	c-53.529-8.592-44.894-37.519-44.894-37.519"/><path id="path3204" fill="none" stroke="#000" stroke-width=".731" d="M335.443,173.213L335.443,173.213	c-20.215-26.812-75.887-21.474-75.887-21.474"/><rect id="rect2481" width="87" height="27" x="94" y="140.791" fill="#00F" fill-opacity=".75" stroke="#000" transform="matrix(0.0043 1 -1 0.0043 291.1959 16.1261)"/><rect id="rect2483" width="87" height="27" x="129" y="140.791" fill="#00F" fill-opacity=".75" stroke="#000" transform="matrix(0.0043 1 -1 0.0043 326.0458 -18.8727)"/><rect id="rect2485" width="87" height="27" x="164" y="140.791" fill="#00F" fill-opacity=".75" stroke="#000" transform="matrix(0.0043 1 -1 0.0043 360.895 -53.8723)"/><rect id="rect2487" width="87" height="27" x="199" y="140.791" fill="#00F" fill-opacity=".75" stroke="#000" transform="matrix(0.0043 1 -1 0.0043 395.7441 -88.872)"/><path id="path2489" stroke="#000" d="M65.739,147.016l16.555,4.748l-16.588,4.721L65.739,147.016z"/><rect id="rect2491" width="87" height="27" x="-16" y="52.75" fill="#00F" fill-opacity=".75" stroke="#000" transform="matrix(0.0043 1 -1 0.0043 93.6309 38.4646)"/><rect id="rect2493" width="87.001" height="27" x="299" y="221.25" fill="#00F" fill-opacity=".75" stroke="#000" transform="matrix(0.0043 1 -1 0.0043 575.772 -108.7582)"/><text font-family="'LucidaSans'" font-size="20" transform="matrix(1 0 0 1 88.8125 101.5)">Back</text><text font-family="'LucidaSans'" font-size="20" transform="matrix(1 0 0 1 205.1035 101.5)">Front</text></svg>